G04 Layer: BottomPasteMaskLayer*
G04 EasyEDA v6.5.22, 2023-03-16 00:42:12*
G04 6c7d3366ae2840beb83d5b943752a861,1465fc12622e42b796a721e2995872a7,10*
G04 Gerber Generator version 0.2*
G04 Scale: 100 percent, Rotated: No, Reflected: No *
G04 Dimensions in millimeters *
G04 leading zeros omitted , absolute positions ,4 integer and 5 decimal *
%FSLAX45Y45*%
%MOMM*%

%ADD10C,1.8000*%
%ADD11C,1.7780*%
%ADD12C,4.0000*%
%ADD13C,1.5000*%

%LPD*%
D10*
G01*
X4247388Y5480050D03*
G01*
X4247388Y5226050D03*
G01*
X4247388Y4972050D03*
G01*
X4247388Y4718050D03*
G01*
X4247388Y4464050D03*
G01*
X4247388Y4210050D03*
G01*
X4247388Y3956050D03*
G01*
X4247388Y3702050D03*
G01*
X2977388Y3702050D03*
G01*
X2977388Y3956050D03*
G01*
X2977388Y4210050D03*
G01*
X2977388Y4464050D03*
G01*
X2977388Y4718050D03*
G01*
X2977388Y4972050D03*
G01*
X2977388Y5226050D03*
G01*
X2977388Y5480050D03*
D11*
G01*
X4171188Y2178050D03*
D10*
G01*
X3917188Y2178050D03*
G01*
X2139188Y2178050D03*
G01*
X3663188Y2178050D03*
G01*
X3409188Y2178050D03*
G01*
X3155188Y2178050D03*
G01*
X2901188Y2178050D03*
G01*
X2647188Y2178050D03*
G01*
X2393188Y2178050D03*
G01*
X1885187Y2178050D03*
G01*
X1631187Y2178050D03*
G01*
X1377187Y2178050D03*
G01*
X1123187Y2178050D03*
G01*
X869187Y2178050D03*
G01*
X615187Y2178050D03*
G01*
X615187Y654050D03*
G01*
X869187Y654050D03*
G01*
X1123187Y654050D03*
G01*
X1377187Y654050D03*
G01*
X1631187Y654050D03*
G01*
X1885187Y654050D03*
G01*
X2139188Y654050D03*
G01*
X2393188Y654050D03*
G01*
X2647188Y654050D03*
G01*
X2901188Y654050D03*
G01*
X3155188Y654050D03*
G01*
X3409188Y654050D03*
G01*
X3663188Y654050D03*
G01*
X3917188Y654050D03*
G01*
X4171188Y654050D03*
D12*
G01*
X1169162Y5128387D03*
G01*
X569213Y5128387D03*
G01*
X919226Y4663312D03*
D10*
G01*
X1681987Y5480050D03*
G01*
X1935988Y5480050D03*
G01*
X2189988Y5480050D03*
G01*
X2443988Y5480050D03*
G01*
X5415788Y5492750D03*
G01*
X5669788Y5492750D03*
G01*
X5923788Y5492750D03*
G01*
X6177788Y5492750D03*
G01*
X6431788Y5492750D03*
G01*
X6685788Y5492750D03*
G01*
X538987Y3663950D03*
G01*
X538987Y3409950D03*
G01*
X538987Y3155950D03*
G01*
X538987Y2901950D03*
D13*
G01*
X1531188Y4349750D03*
G01*
X1731187Y4349750D03*
D10*
G01*
X5009388Y603250D03*
G01*
X5771388Y603250D03*
G01*
X5771388Y857250D03*
G01*
X5009388Y857250D03*
G01*
X5009388Y1111250D03*
G01*
X5771388Y1111250D03*
M02*
