G04 Layer: TopSilkscreenLayer*
G04 EasyEDA v6.5.22, 2023-03-16 00:42:12*
G04 6c7d3366ae2840beb83d5b943752a861,1465fc12622e42b796a721e2995872a7,10*
G04 Gerber Generator version 0.2*
G04 Scale: 100 percent, Rotated: No, Reflected: No *
G04 Dimensions in millimeters *
G04 leading zeros omitted , absolute positions ,4 integer and 5 decimal *
%FSLAX45Y45*%
%MOMM*%

%ADD10C,0.1524*%
%ADD11C,0.2032*%
%ADD12C,0.1270*%
%ADD13C,0.2540*%
%ADD14C,0.3000*%
%ADD15C,0.0141*%

%LPD*%
D10*
X234950Y3117339D02*
G01*
X234950Y3008373D01*
X234950Y3117339D02*
G01*
X271271Y3117339D01*
X287020Y3112259D01*
X297179Y3101845D01*
X302513Y3091431D01*
X307594Y3075683D01*
X307594Y3049775D01*
X302513Y3034281D01*
X297179Y3023867D01*
X287020Y3013453D01*
X271271Y3008373D01*
X234950Y3008373D01*
X341884Y3117339D02*
G01*
X341884Y3008373D01*
X341884Y3117339D02*
G01*
X388620Y3117339D01*
X404368Y3112259D01*
X409447Y3106925D01*
X414781Y3096511D01*
X414781Y3086097D01*
X409447Y3075683D01*
X404368Y3070603D01*
X388620Y3065523D01*
X341884Y3065523D01*
X378460Y3065523D02*
G01*
X414781Y3008373D01*
X449071Y3117339D02*
G01*
X490473Y3008373D01*
X532129Y3117339D02*
G01*
X490473Y3008373D01*
X592328Y3117339D02*
G01*
X576834Y3112259D01*
X571500Y3101845D01*
X571500Y3091431D01*
X576834Y3081017D01*
X587247Y3075683D01*
X608076Y3070603D01*
X623570Y3065523D01*
X633984Y3055109D01*
X639063Y3044695D01*
X639063Y3028947D01*
X633984Y3018533D01*
X628650Y3013453D01*
X613155Y3008373D01*
X592328Y3008373D01*
X576834Y3013453D01*
X571500Y3018533D01*
X566420Y3028947D01*
X566420Y3044695D01*
X571500Y3055109D01*
X581913Y3065523D01*
X597662Y3070603D01*
X618489Y3075683D01*
X628650Y3081017D01*
X633984Y3091431D01*
X633984Y3101845D01*
X628650Y3112259D01*
X613155Y3117339D01*
X592328Y3117339D01*
X699515Y3117339D02*
G01*
X683768Y3112259D01*
X678687Y3101845D01*
X678687Y3091431D01*
X683768Y3081017D01*
X694181Y3075683D01*
X715010Y3070603D01*
X730504Y3065523D01*
X740918Y3055109D01*
X746252Y3044695D01*
X746252Y3028947D01*
X740918Y3018533D01*
X735837Y3013453D01*
X720089Y3008373D01*
X699515Y3008373D01*
X683768Y3013453D01*
X678687Y3018533D01*
X673354Y3028947D01*
X673354Y3044695D01*
X678687Y3055109D01*
X689102Y3065523D01*
X704595Y3070603D01*
X725423Y3075683D01*
X735837Y3081017D01*
X740918Y3091431D01*
X740918Y3101845D01*
X735837Y3112259D01*
X720089Y3117339D01*
X699515Y3117339D01*
X785621Y3091431D02*
G01*
X785621Y3096511D01*
X790955Y3106925D01*
X796036Y3112259D01*
X806450Y3117339D01*
X827278Y3117339D01*
X837692Y3112259D01*
X842771Y3106925D01*
X848105Y3096511D01*
X848105Y3086097D01*
X842771Y3075683D01*
X832357Y3060189D01*
X780542Y3008373D01*
X853186Y3008373D01*
X949960Y3117339D02*
G01*
X897889Y3117339D01*
X892810Y3070603D01*
X897889Y3075683D01*
X913384Y3081017D01*
X929131Y3081017D01*
X944626Y3075683D01*
X955039Y3065523D01*
X960120Y3049775D01*
X960120Y3039361D01*
X955039Y3023867D01*
X944626Y3013453D01*
X929131Y3008373D01*
X913384Y3008373D01*
X897889Y3013453D01*
X892810Y3018533D01*
X887476Y3028947D01*
X1147318Y3101845D02*
G01*
X1136904Y3112259D01*
X1121410Y3117339D01*
X1100581Y3117339D01*
X1084834Y3112259D01*
X1074420Y3101845D01*
X1074420Y3091431D01*
X1079754Y3081017D01*
X1084834Y3075683D01*
X1095247Y3070603D01*
X1126489Y3060189D01*
X1136904Y3055109D01*
X1141984Y3049775D01*
X1147318Y3039361D01*
X1147318Y3023867D01*
X1136904Y3013453D01*
X1121410Y3008373D01*
X1100581Y3008373D01*
X1084834Y3013453D01*
X1074420Y3023867D01*
X1197102Y3117339D02*
G01*
X1197102Y3028947D01*
X1202436Y3013453D01*
X1212850Y3008373D01*
X1223010Y3008373D01*
X1181607Y3081017D02*
G01*
X1217929Y3081017D01*
X1257300Y3049775D02*
G01*
X1319784Y3049775D01*
X1319784Y3060189D01*
X1314450Y3070603D01*
X1309370Y3075683D01*
X1298955Y3081017D01*
X1283462Y3081017D01*
X1273047Y3075683D01*
X1262634Y3065523D01*
X1257300Y3049775D01*
X1257300Y3039361D01*
X1262634Y3023867D01*
X1273047Y3013453D01*
X1283462Y3008373D01*
X1298955Y3008373D01*
X1309370Y3013453D01*
X1319784Y3023867D01*
X1354073Y3081017D02*
G01*
X1354073Y2971797D01*
X1354073Y3065523D02*
G01*
X1364487Y3075683D01*
X1374902Y3081017D01*
X1390395Y3081017D01*
X1400810Y3075683D01*
X1411223Y3065523D01*
X1416304Y3049775D01*
X1416304Y3039361D01*
X1411223Y3023867D01*
X1400810Y3013453D01*
X1390395Y3008373D01*
X1374902Y3008373D01*
X1364487Y3013453D01*
X1354073Y3023867D01*
X1450594Y3081017D02*
G01*
X1450594Y2971797D01*
X1450594Y3065523D02*
G01*
X1461007Y3075683D01*
X1471421Y3081017D01*
X1487170Y3081017D01*
X1497329Y3075683D01*
X1507744Y3065523D01*
X1513078Y3049775D01*
X1513078Y3039361D01*
X1507744Y3023867D01*
X1497329Y3013453D01*
X1487170Y3008373D01*
X1471421Y3008373D01*
X1461007Y3013453D01*
X1450594Y3023867D01*
X1547368Y3049775D02*
G01*
X1609597Y3049775D01*
X1609597Y3060189D01*
X1604518Y3070603D01*
X1599184Y3075683D01*
X1588770Y3081017D01*
X1573276Y3081017D01*
X1562862Y3075683D01*
X1552447Y3065523D01*
X1547368Y3049775D01*
X1547368Y3039361D01*
X1552447Y3023867D01*
X1562862Y3013453D01*
X1573276Y3008373D01*
X1588770Y3008373D01*
X1599184Y3013453D01*
X1609597Y3023867D01*
X1643887Y3081017D02*
G01*
X1643887Y3008373D01*
X1643887Y3049775D02*
G01*
X1649221Y3065523D01*
X1659636Y3075683D01*
X1670050Y3081017D01*
X1685544Y3081017D01*
X1799844Y3117339D02*
G01*
X1799844Y3008373D01*
X1799844Y3117339D02*
G01*
X1841500Y3008373D01*
X1882902Y3117339D02*
G01*
X1841500Y3008373D01*
X1882902Y3117339D02*
G01*
X1882902Y3008373D01*
X1943100Y3081017D02*
G01*
X1932940Y3075683D01*
X1922526Y3065523D01*
X1917192Y3049775D01*
X1917192Y3039361D01*
X1922526Y3023867D01*
X1932940Y3013453D01*
X1943100Y3008373D01*
X1958847Y3008373D01*
X1969261Y3013453D01*
X1979675Y3023867D01*
X1984756Y3039361D01*
X1984756Y3049775D01*
X1979675Y3065523D01*
X1969261Y3075683D01*
X1958847Y3081017D01*
X1943100Y3081017D01*
X2034540Y3117339D02*
G01*
X2034540Y3028947D01*
X2039874Y3013453D01*
X2050288Y3008373D01*
X2060702Y3008373D01*
X2019045Y3081017D02*
G01*
X2055368Y3081017D01*
X2120900Y3081017D02*
G01*
X2110486Y3075683D01*
X2100072Y3065523D01*
X2094991Y3049775D01*
X2094991Y3039361D01*
X2100072Y3023867D01*
X2110486Y3013453D01*
X2120900Y3008373D01*
X2136393Y3008373D01*
X2146808Y3013453D01*
X2157222Y3023867D01*
X2162556Y3039361D01*
X2162556Y3049775D01*
X2157222Y3065523D01*
X2146808Y3075683D01*
X2136393Y3081017D01*
X2120900Y3081017D01*
X2196845Y3081017D02*
G01*
X2196845Y3008373D01*
X2196845Y3049775D02*
G01*
X2201925Y3065523D01*
X2212340Y3075683D01*
X2222754Y3081017D01*
X2238247Y3081017D01*
X2352547Y3117339D02*
G01*
X2352547Y3008373D01*
X2352547Y3117339D02*
G01*
X2388870Y3117339D01*
X2404618Y3112259D01*
X2415031Y3101845D01*
X2420111Y3091431D01*
X2425445Y3075683D01*
X2425445Y3049775D01*
X2420111Y3034281D01*
X2415031Y3023867D01*
X2404618Y3013453D01*
X2388870Y3008373D01*
X2352547Y3008373D01*
X2459736Y3081017D02*
G01*
X2459736Y3008373D01*
X2459736Y3049775D02*
G01*
X2464815Y3065523D01*
X2475229Y3075683D01*
X2485643Y3081017D01*
X2501138Y3081017D01*
X2535427Y3117339D02*
G01*
X2540761Y3112259D01*
X2545841Y3117339D01*
X2540761Y3122673D01*
X2535427Y3117339D01*
X2540761Y3081017D02*
G01*
X2540761Y3008373D01*
X2580131Y3081017D02*
G01*
X2611374Y3008373D01*
X2642615Y3081017D02*
G01*
X2611374Y3008373D01*
X2676906Y3049775D02*
G01*
X2739136Y3049775D01*
X2739136Y3060189D01*
X2734056Y3070603D01*
X2728722Y3075683D01*
X2718308Y3081017D01*
X2702813Y3081017D01*
X2692400Y3075683D01*
X2681986Y3065523D01*
X2676906Y3049775D01*
X2676906Y3039361D01*
X2681986Y3023867D01*
X2692400Y3013453D01*
X2702813Y3008373D01*
X2718308Y3008373D01*
X2728722Y3013453D01*
X2739136Y3023867D01*
X2773425Y3081017D02*
G01*
X2773425Y3008373D01*
X2773425Y3049775D02*
G01*
X2778759Y3065523D01*
X2788920Y3075683D01*
X2799334Y3081017D01*
X2815081Y3081017D01*
X3007359Y3091431D02*
G01*
X3002025Y3101845D01*
X2991611Y3112259D01*
X2981197Y3117339D01*
X2960370Y3117339D01*
X2950209Y3112259D01*
X2939795Y3101845D01*
X2934461Y3091431D01*
X2929381Y3075683D01*
X2929381Y3049775D01*
X2934461Y3034281D01*
X2939795Y3023867D01*
X2950209Y3013453D01*
X2960370Y3008373D01*
X2981197Y3008373D01*
X2991611Y3013453D01*
X3002025Y3023867D01*
X3007359Y3034281D01*
X3103879Y3081017D02*
G01*
X3103879Y3008373D01*
X3103879Y3065523D02*
G01*
X3093465Y3075683D01*
X3083052Y3081017D01*
X3067558Y3081017D01*
X3057143Y3075683D01*
X3046729Y3065523D01*
X3041650Y3049775D01*
X3041650Y3039361D01*
X3046729Y3023867D01*
X3057143Y3013453D01*
X3067558Y3008373D01*
X3083052Y3008373D01*
X3093465Y3013453D01*
X3103879Y3023867D01*
X3138170Y3081017D02*
G01*
X3138170Y3008373D01*
X3138170Y3049775D02*
G01*
X3143250Y3065523D01*
X3153663Y3075683D01*
X3164077Y3081017D01*
X3179825Y3081017D01*
X3214115Y3081017D02*
G01*
X3214115Y3008373D01*
X3214115Y3049775D02*
G01*
X3219195Y3065523D01*
X3229609Y3075683D01*
X3240024Y3081017D01*
X3255518Y3081017D01*
X3289808Y3117339D02*
G01*
X3295141Y3112259D01*
X3300222Y3117339D01*
X3295141Y3122673D01*
X3289808Y3117339D01*
X3295141Y3081017D02*
G01*
X3295141Y3008373D01*
X3334511Y3049775D02*
G01*
X3396995Y3049775D01*
X3396995Y3060189D01*
X3391661Y3070603D01*
X3386581Y3075683D01*
X3376168Y3081017D01*
X3360420Y3081017D01*
X3350259Y3075683D01*
X3339845Y3065523D01*
X3334511Y3049775D01*
X3334511Y3039361D01*
X3339845Y3023867D01*
X3350259Y3013453D01*
X3360420Y3008373D01*
X3376168Y3008373D01*
X3386581Y3013453D01*
X3396995Y3023867D01*
X3431286Y3081017D02*
G01*
X3431286Y3008373D01*
X3431286Y3049775D02*
G01*
X3436365Y3065523D01*
X3446779Y3075683D01*
X3457193Y3081017D01*
X3472688Y3081017D01*
X3548888Y3436365D02*
G01*
X3548888Y3358387D01*
X3553968Y3342894D01*
X3564381Y3332479D01*
X3580129Y3327400D01*
X3590543Y3327400D01*
X3606038Y3332479D01*
X3616452Y3342894D01*
X3621531Y3358387D01*
X3621531Y3436365D01*
X3655822Y3415537D02*
G01*
X3666236Y3420871D01*
X3681984Y3436365D01*
X3681984Y3327400D01*
D11*
X4133088Y3900678D02*
G01*
X4133088Y3997705D01*
X4133088Y3900678D02*
G01*
X4096258Y3997705D01*
X4059174Y3900678D02*
G01*
X4096258Y3997705D01*
X4059174Y3900678D02*
G01*
X4059174Y3997705D01*
X3964177Y3914394D02*
G01*
X3973322Y3905250D01*
X3987038Y3900678D01*
X4005579Y3900678D01*
X4019550Y3905250D01*
X4028693Y3914394D01*
X4028693Y3923792D01*
X4024122Y3932936D01*
X4019550Y3937507D01*
X4010152Y3942079D01*
X3982465Y3951478D01*
X3973322Y3956050D01*
X3968750Y3960621D01*
X3964177Y3970020D01*
X3964177Y3983736D01*
X3973322Y3992879D01*
X3987038Y3997705D01*
X4005579Y3997705D01*
X4019550Y3992879D01*
X4028693Y3983736D01*
X3933697Y3919220D02*
G01*
X3924300Y3914394D01*
X3910584Y3900678D01*
X3910584Y3997705D01*
X4133088Y4154678D02*
G01*
X4133088Y4251705D01*
X4133088Y4154678D02*
G01*
X4096258Y4251705D01*
X4059174Y4154678D02*
G01*
X4096258Y4251705D01*
X4059174Y4154678D02*
G01*
X4059174Y4251705D01*
X3964177Y4168394D02*
G01*
X3973322Y4159250D01*
X3987038Y4154678D01*
X4005579Y4154678D01*
X4019550Y4159250D01*
X4028693Y4168394D01*
X4028693Y4177792D01*
X4024122Y4186936D01*
X4019550Y4191507D01*
X4010152Y4196079D01*
X3982465Y4205478D01*
X3973322Y4210050D01*
X3968750Y4214621D01*
X3964177Y4224020D01*
X3964177Y4237736D01*
X3973322Y4246879D01*
X3987038Y4251705D01*
X4005579Y4251705D01*
X4019550Y4246879D01*
X4028693Y4237736D01*
X3928872Y4177792D02*
G01*
X3928872Y4173220D01*
X3924300Y4163821D01*
X3919727Y4159250D01*
X3910584Y4154678D01*
X3892041Y4154678D01*
X3882897Y4159250D01*
X3878072Y4163821D01*
X3873500Y4173220D01*
X3873500Y4182363D01*
X3878072Y4191507D01*
X3887470Y4205478D01*
X3933697Y4251705D01*
X3868927Y4251705D01*
X4133088Y4408678D02*
G01*
X4133088Y4505705D01*
X4133088Y4408678D02*
G01*
X4096258Y4505705D01*
X4059174Y4408678D02*
G01*
X4096258Y4505705D01*
X4059174Y4408678D02*
G01*
X4059174Y4505705D01*
X3964177Y4422394D02*
G01*
X3973322Y4413250D01*
X3987038Y4408678D01*
X4005579Y4408678D01*
X4019550Y4413250D01*
X4028693Y4422394D01*
X4028693Y4431792D01*
X4024122Y4440936D01*
X4019550Y4445507D01*
X4010152Y4450079D01*
X3982465Y4459478D01*
X3973322Y4464050D01*
X3968750Y4468621D01*
X3964177Y4478020D01*
X3964177Y4491736D01*
X3973322Y4500879D01*
X3987038Y4505705D01*
X4005579Y4505705D01*
X4019550Y4500879D01*
X4028693Y4491736D01*
X3924300Y4408678D02*
G01*
X3873500Y4408678D01*
X3901186Y4445507D01*
X3887470Y4445507D01*
X3878072Y4450079D01*
X3873500Y4454905D01*
X3868927Y4468621D01*
X3868927Y4478020D01*
X3873500Y4491736D01*
X3882897Y4500879D01*
X3896613Y4505705D01*
X3910584Y4505705D01*
X3924300Y4500879D01*
X3928872Y4496307D01*
X3933697Y4487163D01*
X4068318Y5184394D02*
G01*
X4077715Y5175250D01*
X4091431Y5170678D01*
X4109974Y5170678D01*
X4123943Y5175250D01*
X4133088Y5184394D01*
X4133088Y5193792D01*
X4128515Y5202936D01*
X4123943Y5207507D01*
X4114545Y5212079D01*
X4086859Y5221478D01*
X4077715Y5226050D01*
X4073143Y5230621D01*
X4068318Y5240020D01*
X4068318Y5253736D01*
X4077715Y5262879D01*
X4091431Y5267705D01*
X4109974Y5267705D01*
X4123943Y5262879D01*
X4133088Y5253736D01*
X4005579Y5170678D02*
G01*
X4005579Y5267705D01*
X4037838Y5170678D02*
G01*
X3973322Y5170678D01*
X3942841Y5170678D02*
G01*
X3942841Y5267705D01*
X3942841Y5170678D02*
G01*
X3882897Y5170678D01*
X3942841Y5216905D02*
G01*
X3905758Y5216905D01*
X3942841Y5267705D02*
G01*
X3882897Y5267705D01*
X3852418Y5170678D02*
G01*
X3852418Y5267705D01*
X3852418Y5170678D02*
G01*
X3810761Y5170678D01*
X3796791Y5175250D01*
X3792220Y5179821D01*
X3787647Y5189220D01*
X3787647Y5202936D01*
X3792220Y5212079D01*
X3796791Y5216905D01*
X3810761Y5221478D01*
X3852418Y5221478D01*
X4133088Y5424678D02*
G01*
X4133088Y5521705D01*
X4133088Y5424678D02*
G01*
X4100829Y5424678D01*
X4086859Y5429250D01*
X4077715Y5438394D01*
X4073143Y5447792D01*
X4068318Y5461507D01*
X4068318Y5484621D01*
X4073143Y5498592D01*
X4077715Y5507736D01*
X4086859Y5516879D01*
X4100829Y5521705D01*
X4133088Y5521705D01*
X4037838Y5424678D02*
G01*
X4037838Y5521705D01*
X4007358Y5424678D02*
G01*
X4007358Y5521705D01*
X4007358Y5424678D02*
G01*
X3965956Y5424678D01*
X3951986Y5429250D01*
X3947413Y5433821D01*
X3942841Y5443220D01*
X3942841Y5452363D01*
X3947413Y5461507D01*
X3951986Y5466079D01*
X3965956Y5470905D01*
X4007358Y5470905D01*
X3975100Y5470905D02*
G01*
X3942841Y5521705D01*
X3276345Y5447792D02*
G01*
X3280918Y5438394D01*
X3290315Y5429250D01*
X3299459Y5424678D01*
X3318002Y5424678D01*
X3327145Y5429250D01*
X3336543Y5438394D01*
X3341115Y5447792D01*
X3345688Y5461507D01*
X3345688Y5484621D01*
X3341115Y5498592D01*
X3336543Y5507736D01*
X3327145Y5516879D01*
X3318002Y5521705D01*
X3299459Y5521705D01*
X3290315Y5516879D01*
X3280918Y5507736D01*
X3276345Y5498592D01*
X3276345Y5484621D01*
X3299459Y5484621D02*
G01*
X3276345Y5484621D01*
X3245865Y5424678D02*
G01*
X3245865Y5521705D01*
X3245865Y5424678D02*
G01*
X3181350Y5521705D01*
X3181350Y5424678D02*
G01*
X3181350Y5521705D01*
X3150870Y5424678D02*
G01*
X3150870Y5521705D01*
X3150870Y5424678D02*
G01*
X3118358Y5424678D01*
X3104641Y5429250D01*
X3095497Y5438394D01*
X3090672Y5447792D01*
X3086100Y5461507D01*
X3086100Y5484621D01*
X3090672Y5498592D01*
X3095497Y5507736D01*
X3104641Y5516879D01*
X3118358Y5521705D01*
X3150870Y5521705D01*
X3421888Y5170678D02*
G01*
X3421888Y5267705D01*
X3421888Y5170678D02*
G01*
X3361943Y5170678D01*
X3421888Y5216905D02*
G01*
X3385058Y5216905D01*
X3294379Y5170678D02*
G01*
X3331463Y5267705D01*
X3294379Y5170678D02*
G01*
X3257550Y5267705D01*
X3317493Y5235194D02*
G01*
X3271265Y5235194D01*
X3227070Y5170678D02*
G01*
X3227070Y5267705D01*
X3227070Y5267705D02*
G01*
X3171697Y5267705D01*
X3108706Y5170678D02*
G01*
X3108706Y5267705D01*
X3141218Y5170678D02*
G01*
X3076447Y5170678D01*
X3308858Y4916678D02*
G01*
X3345688Y5013705D01*
X3308858Y4916678D02*
G01*
X3271774Y5013705D01*
X3331718Y4981194D02*
G01*
X3285743Y4981194D01*
X3236722Y4939792D02*
G01*
X3236722Y4935220D01*
X3232150Y4925821D01*
X3227577Y4921250D01*
X3218179Y4916678D01*
X3199638Y4916678D01*
X3190493Y4921250D01*
X3185922Y4925821D01*
X3181350Y4935220D01*
X3181350Y4944363D01*
X3185922Y4953507D01*
X3195065Y4967478D01*
X3241293Y5013705D01*
X3176777Y5013705D01*
X3308858Y4662678D02*
G01*
X3345688Y4759705D01*
X3308858Y4662678D02*
G01*
X3271774Y4759705D01*
X3331718Y4727194D02*
G01*
X3285743Y4727194D01*
X3241293Y4681220D02*
G01*
X3232150Y4676394D01*
X3218179Y4662678D01*
X3218179Y4759705D01*
X3345688Y4408678D02*
G01*
X3345688Y4505705D01*
X3345688Y4408678D02*
G01*
X3304031Y4408678D01*
X3290315Y4413250D01*
X3285743Y4417821D01*
X3280918Y4427220D01*
X3280918Y4436363D01*
X3285743Y4445507D01*
X3290315Y4450079D01*
X3304031Y4454905D01*
X3345688Y4454905D02*
G01*
X3304031Y4454905D01*
X3290315Y4459478D01*
X3285743Y4464050D01*
X3280918Y4473194D01*
X3280918Y4487163D01*
X3285743Y4496307D01*
X3290315Y4500879D01*
X3304031Y4505705D01*
X3345688Y4505705D01*
X3250438Y4427220D02*
G01*
X3241293Y4422394D01*
X3227577Y4408678D01*
X3227577Y4505705D01*
X3345688Y4154678D02*
G01*
X3345688Y4251705D01*
X3345688Y4154678D02*
G01*
X3304031Y4154678D01*
X3290315Y4159250D01*
X3285743Y4163821D01*
X3280918Y4173220D01*
X3280918Y4182363D01*
X3285743Y4191507D01*
X3290315Y4196079D01*
X3304031Y4200905D01*
X3345688Y4200905D02*
G01*
X3304031Y4200905D01*
X3290315Y4205478D01*
X3285743Y4210050D01*
X3280918Y4219194D01*
X3280918Y4233163D01*
X3285743Y4242307D01*
X3290315Y4246879D01*
X3304031Y4251705D01*
X3345688Y4251705D01*
X3245865Y4177792D02*
G01*
X3245865Y4173220D01*
X3241293Y4163821D01*
X3236722Y4159250D01*
X3227577Y4154678D01*
X3209036Y4154678D01*
X3199638Y4159250D01*
X3195065Y4163821D01*
X3190493Y4173220D01*
X3190493Y4182363D01*
X3195065Y4191507D01*
X3204463Y4205478D01*
X3250438Y4251705D01*
X3185922Y4251705D01*
X3314445Y3923792D02*
G01*
X3319018Y3914394D01*
X3328415Y3905250D01*
X3337559Y3900678D01*
X3356102Y3900678D01*
X3365245Y3905250D01*
X3374643Y3914394D01*
X3379215Y3923792D01*
X3383788Y3937507D01*
X3383788Y3960621D01*
X3379215Y3974592D01*
X3374643Y3983736D01*
X3365245Y3992879D01*
X3356102Y3997705D01*
X3337559Y3997705D01*
X3328415Y3992879D01*
X3319018Y3983736D01*
X3314445Y3974592D01*
X3314445Y3960621D01*
X3337559Y3960621D02*
G01*
X3314445Y3960621D01*
X3283965Y3900678D02*
G01*
X3283965Y3997705D01*
X3283965Y3900678D02*
G01*
X3219450Y3997705D01*
X3219450Y3900678D02*
G01*
X3219450Y3997705D01*
X3188970Y3900678D02*
G01*
X3188970Y3997705D01*
X3188970Y3900678D02*
G01*
X3156458Y3900678D01*
X3142741Y3905250D01*
X3133597Y3914394D01*
X3128772Y3923792D01*
X3124200Y3937507D01*
X3124200Y3960621D01*
X3128772Y3974592D01*
X3133597Y3983736D01*
X3142741Y3992879D01*
X3156458Y3997705D01*
X3188970Y3997705D01*
X3459988Y3659378D02*
G01*
X3423158Y3756405D01*
X3386074Y3659378D02*
G01*
X3423158Y3756405D01*
X3355593Y3659378D02*
G01*
X3355593Y3756405D01*
X3355593Y3659378D02*
G01*
X3318763Y3756405D01*
X3281679Y3659378D02*
G01*
X3318763Y3756405D01*
X3281679Y3659378D02*
G01*
X3281679Y3756405D01*
X3223513Y3659378D02*
G01*
X3232658Y3663950D01*
X3242056Y3673094D01*
X3246627Y3682492D01*
X3251200Y3696207D01*
X3251200Y3719321D01*
X3246627Y3733292D01*
X3242056Y3742436D01*
X3232658Y3751579D01*
X3223513Y3756405D01*
X3204972Y3756405D01*
X3195827Y3751579D01*
X3186684Y3742436D01*
X3181858Y3733292D01*
X3177286Y3719321D01*
X3177286Y3696207D01*
X3181858Y3682492D01*
X3186684Y3673094D01*
X3195827Y3663950D01*
X3204972Y3659378D01*
X3223513Y3659378D01*
X3114547Y3659378D02*
G01*
X3114547Y3756405D01*
X3146806Y3659378D02*
G01*
X3082290Y3659378D01*
X4133088Y3646678D02*
G01*
X4133088Y3743705D01*
X4133088Y3646678D02*
G01*
X4073143Y3646678D01*
X4133088Y3692905D02*
G01*
X4096258Y3692905D01*
X4133088Y3743705D02*
G01*
X4073143Y3743705D01*
X4042663Y3646678D02*
G01*
X4042663Y3743705D01*
X4042663Y3646678D02*
G01*
X3977893Y3743705D01*
X3977893Y3646678D02*
G01*
X3977893Y3743705D01*
X4133088Y4662678D02*
G01*
X4133088Y4759705D01*
X4133088Y4662678D02*
G01*
X4091431Y4662678D01*
X4077715Y4667250D01*
X4073143Y4671821D01*
X4068318Y4681220D01*
X4068318Y4690363D01*
X4073143Y4699507D01*
X4077715Y4704079D01*
X4091431Y4708905D01*
X4133088Y4708905D01*
X4100829Y4708905D02*
G01*
X4068318Y4759705D01*
X3973322Y4676394D02*
G01*
X3982465Y4667250D01*
X3996436Y4662678D01*
X4014977Y4662678D01*
X4028693Y4667250D01*
X4037838Y4676394D01*
X4037838Y4685792D01*
X4033265Y4694936D01*
X4028693Y4699507D01*
X4019550Y4704079D01*
X3991863Y4713478D01*
X3982465Y4718050D01*
X3977893Y4722621D01*
X3973322Y4732020D01*
X3973322Y4745736D01*
X3982465Y4754879D01*
X3996436Y4759705D01*
X4014977Y4759705D01*
X4028693Y4754879D01*
X4037838Y4745736D01*
X3910584Y4662678D02*
G01*
X3910584Y4759705D01*
X3942841Y4662678D02*
G01*
X3878072Y4662678D01*
X4068318Y4930394D02*
G01*
X4077715Y4921250D01*
X4091431Y4916678D01*
X4109974Y4916678D01*
X4123943Y4921250D01*
X4133088Y4930394D01*
X4133088Y4939792D01*
X4128515Y4948936D01*
X4123943Y4953507D01*
X4114545Y4958079D01*
X4086859Y4967478D01*
X4077715Y4972050D01*
X4073143Y4976621D01*
X4068318Y4986020D01*
X4068318Y4999736D01*
X4077715Y5008879D01*
X4091431Y5013705D01*
X4109974Y5013705D01*
X4123943Y5008879D01*
X4133088Y4999736D01*
X4037838Y4916678D02*
G01*
X4037838Y5013705D01*
X4037838Y5013705D02*
G01*
X3982465Y5013705D01*
X3951986Y4916678D02*
G01*
X3951986Y5013705D01*
X3951986Y4916678D02*
G01*
X3910584Y4916678D01*
X3896613Y4921250D01*
X3892041Y4925821D01*
X3887470Y4935220D01*
X3887470Y4948936D01*
X3892041Y4958079D01*
X3896613Y4962905D01*
X3910584Y4967478D01*
X3951986Y4967478D01*
D10*
X4737864Y243586D02*
G01*
X4846830Y201929D01*
X4737864Y243586D02*
G01*
X4846830Y284987D01*
X4810508Y217423D02*
G01*
X4810508Y269494D01*
X4737864Y319278D02*
G01*
X4846830Y319278D01*
X4737864Y319278D02*
G01*
X4737864Y366013D01*
X4742944Y381762D01*
X4748278Y386842D01*
X4758692Y392176D01*
X4769106Y392176D01*
X4779520Y386842D01*
X4784600Y381762D01*
X4789680Y366013D01*
X4789680Y319278D01*
X4789680Y355600D02*
G01*
X4846830Y392176D01*
X4737864Y426465D02*
G01*
X4846830Y426465D01*
X4737864Y426465D02*
G01*
X4737864Y462787D01*
X4742944Y478281D01*
X4753358Y488695D01*
X4763772Y494029D01*
X4779520Y499110D01*
X4805428Y499110D01*
X4820922Y494029D01*
X4831336Y488695D01*
X4841750Y478281D01*
X4846830Y462787D01*
X4846830Y426465D01*
X4737864Y533400D02*
G01*
X4815842Y533400D01*
X4831336Y538479D01*
X4841750Y548894D01*
X4846830Y564642D01*
X4846830Y575055D01*
X4841750Y590550D01*
X4831336Y600963D01*
X4815842Y606044D01*
X4737864Y606044D01*
X4737864Y640334D02*
G01*
X4846830Y640334D01*
X4737864Y674623D02*
G01*
X4846830Y674623D01*
X4737864Y674623D02*
G01*
X4846830Y747521D01*
X4737864Y747521D02*
G01*
X4846830Y747521D01*
X4737864Y812800D02*
G01*
X4742944Y802639D01*
X4753358Y792226D01*
X4763772Y786892D01*
X4779520Y781812D01*
X4805428Y781812D01*
X4820922Y786892D01*
X4831336Y792226D01*
X4841750Y802639D01*
X4846830Y812800D01*
X4846830Y833628D01*
X4841750Y844042D01*
X4831336Y854455D01*
X4820922Y859789D01*
X4805428Y864870D01*
X4779520Y864870D01*
X4763772Y859789D01*
X4753358Y854455D01*
X4742944Y844042D01*
X4737864Y833628D01*
X4737864Y812800D01*
X4883406Y899160D02*
G01*
X4883406Y992631D01*
X4737864Y1026921D02*
G01*
X4846830Y1026921D01*
X4737864Y1026921D02*
G01*
X4846830Y1099820D01*
X4737864Y1099820D02*
G01*
X4846830Y1099820D01*
X4737864Y1175512D02*
G01*
X4846830Y1134110D01*
X4737864Y1175512D02*
G01*
X4846830Y1217168D01*
X4810508Y1149604D02*
G01*
X4810508Y1201420D01*
X4737864Y1251457D02*
G01*
X4846830Y1251457D01*
X4737864Y1251457D02*
G01*
X4846830Y1324102D01*
X4737864Y1324102D02*
G01*
X4846830Y1324102D01*
X4737864Y1389634D02*
G01*
X4742944Y1379220D01*
X4753358Y1368805D01*
X4763772Y1363726D01*
X4779520Y1358392D01*
X4805428Y1358392D01*
X4820922Y1363726D01*
X4831336Y1368805D01*
X4841750Y1379220D01*
X4846830Y1389634D01*
X4846830Y1410462D01*
X4841750Y1420876D01*
X4831336Y1431289D01*
X4820922Y1436370D01*
X4805428Y1441450D01*
X4779520Y1441450D01*
X4763772Y1436370D01*
X4753358Y1431289D01*
X4742944Y1420876D01*
X4737864Y1410462D01*
X4737864Y1389634D01*
X4590288Y1556765D02*
G01*
X4590288Y1478787D01*
X4595368Y1463294D01*
X4605781Y1452879D01*
X4621529Y1447800D01*
X4631943Y1447800D01*
X4647438Y1452879D01*
X4657852Y1463294D01*
X4662931Y1478787D01*
X4662931Y1556765D01*
X4702556Y1530857D02*
G01*
X4702556Y1535937D01*
X4707636Y1546352D01*
X4712970Y1551686D01*
X4723384Y1556765D01*
X4743958Y1556765D01*
X4754372Y1551686D01*
X4759706Y1546352D01*
X4764786Y1535937D01*
X4764786Y1525523D01*
X4759706Y1515110D01*
X4749291Y1499615D01*
X4697222Y1447800D01*
X4770120Y1447800D01*
D11*
X4201162Y2018797D02*
G01*
X4104134Y2018797D01*
X4201162Y2051055D02*
G01*
X4201162Y1986285D01*
X4201162Y1955805D02*
G01*
X4104134Y1891289D01*
X4201162Y1891289D02*
G01*
X4104134Y1955805D01*
X4201162Y1860809D02*
G01*
X4104134Y1860809D01*
X4201162Y1860809D02*
G01*
X4201162Y1828551D01*
X4196590Y1814581D01*
X4187446Y1805437D01*
X4178048Y1800865D01*
X4164332Y1796039D01*
X4141218Y1796039D01*
X4127248Y1800865D01*
X4118104Y1805437D01*
X4108960Y1814581D01*
X4104134Y1828551D01*
X4104134Y1860809D01*
X3922524Y975611D02*
G01*
X3931922Y980183D01*
X3941066Y989581D01*
X3945638Y998725D01*
X3945638Y1017267D01*
X3941066Y1026411D01*
X3931922Y1035809D01*
X3922524Y1040381D01*
X3908808Y1044953D01*
X3885694Y1044953D01*
X3871724Y1040381D01*
X3862580Y1035809D01*
X3853436Y1026411D01*
X3848610Y1017267D01*
X3848610Y998725D01*
X3853436Y989581D01*
X3862580Y980183D01*
X3871724Y975611D01*
X3885694Y975611D01*
X3885694Y998725D02*
G01*
X3885694Y975611D01*
X3945638Y945131D02*
G01*
X3848610Y945131D01*
X3945638Y945131D02*
G01*
X3848610Y880615D01*
X3945638Y880615D02*
G01*
X3848610Y880615D01*
X3945638Y850135D02*
G01*
X3848610Y850135D01*
X3945638Y850135D02*
G01*
X3945638Y817623D01*
X3941066Y803907D01*
X3931922Y794763D01*
X3922524Y789937D01*
X3908808Y785365D01*
X3885694Y785365D01*
X3871724Y789937D01*
X3862580Y794763D01*
X3853436Y803907D01*
X3848610Y817623D01*
X3848610Y850135D01*
X3456180Y898898D02*
G01*
X3456180Y945126D01*
X3414778Y949698D01*
X3419350Y945126D01*
X3423922Y931156D01*
X3423922Y917440D01*
X3419350Y903470D01*
X3409952Y894326D01*
X3396236Y889500D01*
X3386838Y889500D01*
X3373122Y894326D01*
X3363978Y903470D01*
X3359152Y917440D01*
X3359152Y931156D01*
X3363978Y945126D01*
X3368550Y949698D01*
X3377694Y954270D01*
X3456180Y859020D02*
G01*
X3359152Y822190D01*
X3456180Y785360D02*
G01*
X3359152Y822190D01*
X628398Y2051044D02*
G01*
X531370Y2051044D01*
X628398Y2051044D02*
G01*
X628398Y2018786D01*
X623826Y2004816D01*
X614682Y1995672D01*
X605284Y1991100D01*
X591568Y1986274D01*
X568454Y1986274D01*
X554484Y1991100D01*
X545340Y1995672D01*
X536196Y2004816D01*
X531370Y2018786D01*
X531370Y2051044D01*
X609856Y1955794D02*
G01*
X614682Y1946650D01*
X628398Y1932934D01*
X531370Y1932934D01*
X605284Y1897628D02*
G01*
X609856Y1897628D01*
X619254Y1893056D01*
X623826Y1888484D01*
X628398Y1879340D01*
X628398Y1860798D01*
X623826Y1851654D01*
X619254Y1846828D01*
X609856Y1842256D01*
X600712Y1842256D01*
X591568Y1846828D01*
X577598Y1856226D01*
X531370Y1902454D01*
X531370Y1837684D01*
X4199633Y980180D02*
G01*
X4102605Y943350D01*
X4199633Y906266D02*
G01*
X4102605Y943350D01*
X4199633Y875786D02*
G01*
X4195061Y871214D01*
X4199633Y866642D01*
X4204205Y871214D01*
X4199633Y875786D01*
X4167375Y871214D02*
G01*
X4102605Y871214D01*
X4167375Y836162D02*
G01*
X4102605Y836162D01*
X4148833Y836162D02*
G01*
X4162803Y822192D01*
X4167375Y813048D01*
X4167375Y799078D01*
X4162803Y789934D01*
X4148833Y785362D01*
X4102605Y785362D01*
X652020Y998722D02*
G01*
X554992Y998722D01*
X652020Y998722D02*
G01*
X652020Y966464D01*
X647448Y952494D01*
X638304Y943350D01*
X628906Y938778D01*
X615190Y933952D01*
X592076Y933952D01*
X578106Y938778D01*
X568962Y943350D01*
X559818Y952494D01*
X554992Y966464D01*
X554992Y998722D01*
X633478Y903472D02*
G01*
X638304Y894328D01*
X652020Y880612D01*
X554992Y880612D01*
X652020Y840734D02*
G01*
X652020Y789934D01*
X615190Y817620D01*
X615190Y803904D01*
X610618Y794506D01*
X605792Y789934D01*
X592076Y785362D01*
X582678Y785362D01*
X568962Y789934D01*
X559818Y799332D01*
X554992Y813048D01*
X554992Y827018D01*
X559818Y840734D01*
X564390Y845306D01*
X573534Y850132D01*
X3423414Y1981702D02*
G01*
X3432812Y1986274D01*
X3441956Y1995672D01*
X3446528Y2004816D01*
X3446528Y2023358D01*
X3441956Y2032502D01*
X3432812Y2041900D01*
X3423414Y2046472D01*
X3409698Y2051044D01*
X3386584Y2051044D01*
X3372614Y2046472D01*
X3363470Y2041900D01*
X3354326Y2032502D01*
X3349500Y2023358D01*
X3349500Y2004816D01*
X3354326Y1995672D01*
X3363470Y1986274D01*
X3372614Y1981702D01*
X3386584Y1981702D01*
X3386584Y2004816D02*
G01*
X3386584Y1981702D01*
X3446528Y1951222D02*
G01*
X3349500Y1951222D01*
X3446528Y1951222D02*
G01*
X3349500Y1886706D01*
X3446528Y1886706D02*
G01*
X3349500Y1886706D01*
X3446528Y1856226D02*
G01*
X3349500Y1856226D01*
X3446528Y1856226D02*
G01*
X3446528Y1823714D01*
X3441956Y1809998D01*
X3432812Y1800854D01*
X3423414Y1796028D01*
X3409698Y1791456D01*
X3386584Y1791456D01*
X3372614Y1796028D01*
X3363470Y1800854D01*
X3354326Y1809998D01*
X3349500Y1823714D01*
X3349500Y1856226D01*
X3954782Y2051055D02*
G01*
X3857754Y2051055D01*
X3954782Y2051055D02*
G01*
X3954782Y2009399D01*
X3950210Y1995683D01*
X3945638Y1991111D01*
X3936240Y1986285D01*
X3927096Y1986285D01*
X3917952Y1991111D01*
X3913380Y1995683D01*
X3908554Y2009399D01*
X3908554Y2051055D01*
X3908554Y2018797D02*
G01*
X3857754Y1986285D01*
X3954782Y1955805D02*
G01*
X3857754Y1891289D01*
X3954782Y1891289D02*
G01*
X3857754Y1955805D01*
X3954782Y1860809D02*
G01*
X3857754Y1860809D01*
X3954782Y1860809D02*
G01*
X3954782Y1828551D01*
X3950210Y1814581D01*
X3941066Y1805437D01*
X3931668Y1800865D01*
X3917952Y1796039D01*
X3894838Y1796039D01*
X3880868Y1800865D01*
X3871724Y1805437D01*
X3862580Y1814581D01*
X3857754Y1828551D01*
X3857754Y1860809D01*
X3705354Y2051050D02*
G01*
X3608326Y2051050D01*
X3705354Y2051050D02*
G01*
X3705354Y2009394D01*
X3700782Y1995678D01*
X3696210Y1991105D01*
X3686812Y1986279D01*
X3677668Y1986279D01*
X3668524Y1991105D01*
X3663952Y1995678D01*
X3659126Y2009394D01*
X3659126Y2051050D01*
X3659126Y2018792D02*
G01*
X3608326Y1986279D01*
X3691638Y1891284D02*
G01*
X3700782Y1900428D01*
X3705354Y1914397D01*
X3705354Y1932939D01*
X3700782Y1946655D01*
X3691638Y1955800D01*
X3682240Y1955800D01*
X3673096Y1951228D01*
X3668524Y1946655D01*
X3663952Y1937512D01*
X3654554Y1909826D01*
X3649982Y1900428D01*
X3645410Y1895855D01*
X3636012Y1891284D01*
X3622296Y1891284D01*
X3613152Y1900428D01*
X3608326Y1914397D01*
X3608326Y1932939D01*
X3613152Y1946655D01*
X3622296Y1955800D01*
X3705354Y1828545D02*
G01*
X3608326Y1828545D01*
X3705354Y1860804D02*
G01*
X3705354Y1796034D01*
X3192528Y2051050D02*
G01*
X3095500Y2051050D01*
X3192528Y2051050D02*
G01*
X3192528Y2018792D01*
X3187956Y2004821D01*
X3178812Y1995678D01*
X3169414Y1991105D01*
X3155698Y1986279D01*
X3132584Y1986279D01*
X3118614Y1991105D01*
X3109470Y1995678D01*
X3100326Y2004821D01*
X3095500Y2018792D01*
X3095500Y2051050D01*
X3169414Y1951228D02*
G01*
X3173986Y1951228D01*
X3183384Y1946655D01*
X3187956Y1942084D01*
X3192528Y1932939D01*
X3192528Y1914397D01*
X3187956Y1905000D01*
X3183384Y1900428D01*
X3173986Y1895855D01*
X3164842Y1895855D01*
X3155698Y1900428D01*
X3141728Y1909826D01*
X3095500Y1955800D01*
X3095500Y1891284D01*
X2929130Y2051050D02*
G01*
X2832102Y2051050D01*
X2929130Y2051050D02*
G01*
X2929130Y2018792D01*
X2924558Y2004821D01*
X2915414Y1995678D01*
X2906016Y1991105D01*
X2892300Y1986279D01*
X2869186Y1986279D01*
X2855216Y1991105D01*
X2846072Y1995678D01*
X2836928Y2004821D01*
X2832102Y2018792D01*
X2832102Y2051050D01*
X2929130Y1946655D02*
G01*
X2929130Y1895855D01*
X2892300Y1923542D01*
X2892300Y1909826D01*
X2887728Y1900428D01*
X2882902Y1895855D01*
X2869186Y1891284D01*
X2859788Y1891284D01*
X2846072Y1895855D01*
X2836928Y1905000D01*
X2832102Y1918970D01*
X2832102Y1932939D01*
X2836928Y1946655D01*
X2841500Y1951228D01*
X2850644Y1955800D01*
X2679954Y2051055D02*
G01*
X2582925Y2051055D01*
X2679954Y2051055D02*
G01*
X2679954Y2018797D01*
X2675381Y2004827D01*
X2666238Y1995683D01*
X2656840Y1991111D01*
X2643124Y1986285D01*
X2620009Y1986285D01*
X2606040Y1991111D01*
X2596895Y1995683D01*
X2587752Y2004827D01*
X2582925Y2018797D01*
X2582925Y2051055D01*
X2679954Y1909831D02*
G01*
X2615438Y1955805D01*
X2615438Y1886717D01*
X2679954Y1909831D02*
G01*
X2582925Y1909831D01*
X2426713Y2051044D02*
G01*
X2329685Y2051044D01*
X2426713Y2051044D02*
G01*
X2426713Y2018786D01*
X2422141Y2004816D01*
X2412997Y1995672D01*
X2403599Y1991100D01*
X2389883Y1986274D01*
X2366769Y1986274D01*
X2352799Y1991100D01*
X2343655Y1995672D01*
X2334511Y2004816D01*
X2329685Y2018786D01*
X2329685Y2051044D01*
X2426713Y1900422D02*
G01*
X2426713Y1946650D01*
X2385311Y1951222D01*
X2389883Y1946650D01*
X2394455Y1932934D01*
X2394455Y1918964D01*
X2389883Y1904994D01*
X2380485Y1895850D01*
X2366769Y1891278D01*
X2357371Y1891278D01*
X2343655Y1895850D01*
X2334511Y1904994D01*
X2329685Y1918964D01*
X2329685Y1932934D01*
X2334511Y1946650D01*
X2339083Y1951222D01*
X2348227Y1955794D01*
X2165098Y2051055D02*
G01*
X2068070Y2051055D01*
X2165098Y2051055D02*
G01*
X2165098Y2018797D01*
X2160526Y2004827D01*
X2151382Y1995683D01*
X2141984Y1991111D01*
X2128268Y1986285D01*
X2105154Y1986285D01*
X2091184Y1991111D01*
X2082040Y1995683D01*
X2072896Y2004827D01*
X2068070Y2018797D01*
X2068070Y2051055D01*
X2151382Y1900433D02*
G01*
X2160526Y1905005D01*
X2165098Y1918975D01*
X2165098Y1928119D01*
X2160526Y1942089D01*
X2146556Y1951233D01*
X2123696Y1955805D01*
X2100582Y1955805D01*
X2082040Y1951233D01*
X2072896Y1942089D01*
X2068070Y1928119D01*
X2068070Y1923547D01*
X2072896Y1909831D01*
X2082040Y1900433D01*
X2095756Y1895861D01*
X2100582Y1895861D01*
X2114298Y1900433D01*
X2123696Y1909831D01*
X2128268Y1923547D01*
X2128268Y1928119D01*
X2123696Y1942089D01*
X2114298Y1951233D01*
X2100582Y1955805D01*
X1923798Y2051050D02*
G01*
X1826770Y2051050D01*
X1923798Y2051050D02*
G01*
X1923798Y2018792D01*
X1919226Y2004821D01*
X1910082Y1995678D01*
X1900684Y1991105D01*
X1886968Y1986279D01*
X1863854Y1986279D01*
X1849884Y1991105D01*
X1840740Y1995678D01*
X1831596Y2004821D01*
X1826770Y2018792D01*
X1826770Y2051050D01*
X1923798Y1891284D02*
G01*
X1826770Y1937512D01*
X1923798Y1955800D02*
G01*
X1923798Y1891284D01*
X1674878Y2051050D02*
G01*
X1577850Y2051050D01*
X1674878Y2051050D02*
G01*
X1674878Y2018792D01*
X1670306Y2004821D01*
X1661162Y1995678D01*
X1651764Y1991105D01*
X1638048Y1986279D01*
X1614934Y1986279D01*
X1600964Y1991105D01*
X1591820Y1995678D01*
X1582676Y2004821D01*
X1577850Y2018792D01*
X1577850Y2051050D01*
X1674878Y1932939D02*
G01*
X1670306Y1946655D01*
X1661162Y1951228D01*
X1651764Y1951228D01*
X1642620Y1946655D01*
X1638048Y1937512D01*
X1633476Y1918970D01*
X1628650Y1905000D01*
X1619506Y1895855D01*
X1610362Y1891284D01*
X1596392Y1891284D01*
X1587248Y1895855D01*
X1582676Y1900428D01*
X1577850Y1914397D01*
X1577850Y1932939D01*
X1582676Y1946655D01*
X1587248Y1951228D01*
X1596392Y1955800D01*
X1610362Y1955800D01*
X1619506Y1951228D01*
X1628650Y1942084D01*
X1633476Y1928113D01*
X1638048Y1909826D01*
X1642620Y1900428D01*
X1651764Y1895855D01*
X1661162Y1895855D01*
X1670306Y1900428D01*
X1674878Y1914397D01*
X1674878Y1932939D01*
X1425958Y2051052D02*
G01*
X1328930Y2051052D01*
X1425958Y2051052D02*
G01*
X1425958Y2018794D01*
X1421386Y2004824D01*
X1412242Y1995680D01*
X1402844Y1991108D01*
X1389128Y1986282D01*
X1366014Y1986282D01*
X1352044Y1991108D01*
X1342900Y1995680D01*
X1333756Y2004824D01*
X1328930Y2018794D01*
X1328930Y2051052D01*
X1393700Y1895858D02*
G01*
X1379730Y1900430D01*
X1370586Y1909828D01*
X1366014Y1923544D01*
X1366014Y1928116D01*
X1370586Y1942086D01*
X1379730Y1951230D01*
X1393700Y1955802D01*
X1398272Y1955802D01*
X1412242Y1951230D01*
X1421386Y1942086D01*
X1425958Y1928116D01*
X1425958Y1923544D01*
X1421386Y1909828D01*
X1412242Y1900430D01*
X1393700Y1895858D01*
X1370586Y1895858D01*
X1347472Y1900430D01*
X1333756Y1909828D01*
X1328930Y1923544D01*
X1328930Y1932942D01*
X1333756Y1946658D01*
X1342900Y1951230D01*
X1149098Y2051052D02*
G01*
X1052070Y2051052D01*
X1149098Y2051052D02*
G01*
X1149098Y2018794D01*
X1144526Y2004824D01*
X1135382Y1995680D01*
X1125984Y1991108D01*
X1112268Y1986282D01*
X1089154Y1986282D01*
X1075184Y1991108D01*
X1066040Y1995680D01*
X1056896Y2004824D01*
X1052070Y2018794D01*
X1052070Y2051052D01*
X1130556Y1955802D02*
G01*
X1135382Y1946658D01*
X1149098Y1932942D01*
X1052070Y1932942D01*
X1149098Y1874522D02*
G01*
X1144526Y1888492D01*
X1130556Y1897636D01*
X1107696Y1902462D01*
X1093726Y1902462D01*
X1070612Y1897636D01*
X1056896Y1888492D01*
X1052070Y1874522D01*
X1052070Y1865378D01*
X1056896Y1851662D01*
X1070612Y1842264D01*
X1093726Y1837692D01*
X1107696Y1837692D01*
X1130556Y1842264D01*
X1144526Y1851662D01*
X1149098Y1865378D01*
X1149098Y1874522D01*
X905258Y2051050D02*
G01*
X808230Y2051050D01*
X905258Y2051050D02*
G01*
X905258Y2018792D01*
X900686Y2004821D01*
X891542Y1995678D01*
X882144Y1991105D01*
X868428Y1986279D01*
X845314Y1986279D01*
X831344Y1991105D01*
X822200Y1995678D01*
X813056Y2004821D01*
X808230Y2018792D01*
X808230Y2051050D01*
X886716Y1955800D02*
G01*
X891542Y1946655D01*
X905258Y1932939D01*
X808230Y1932939D01*
X886716Y1902460D02*
G01*
X891542Y1893062D01*
X905258Y1879345D01*
X808230Y1879345D01*
X899416Y1040378D02*
G01*
X899416Y989578D01*
X862586Y1017264D01*
X862586Y1003294D01*
X858014Y994150D01*
X853188Y989578D01*
X839472Y984752D01*
X830074Y984752D01*
X816358Y989578D01*
X807214Y998722D01*
X802388Y1012692D01*
X802388Y1026408D01*
X807214Y1040378D01*
X811786Y1044950D01*
X820930Y1049522D01*
X899416Y954272D02*
G01*
X802388Y917442D01*
X899416Y880612D02*
G01*
X802388Y917442D01*
X899416Y840734D02*
G01*
X899416Y789934D01*
X862586Y817620D01*
X862586Y803904D01*
X858014Y794506D01*
X853188Y789934D01*
X839472Y785362D01*
X830074Y785362D01*
X816358Y789934D01*
X807214Y799332D01*
X802388Y813048D01*
X802388Y827018D01*
X807214Y840734D01*
X811786Y845306D01*
X820930Y850132D01*
X1168656Y1030988D02*
G01*
X1071628Y1030988D01*
X1168656Y1030988D02*
G01*
X1168656Y989332D01*
X1164084Y975616D01*
X1159512Y971044D01*
X1150114Y966218D01*
X1140970Y966218D01*
X1131826Y971044D01*
X1127254Y975616D01*
X1122428Y989332D01*
X1122428Y1030988D01*
X1122428Y998730D02*
G01*
X1071628Y966218D01*
X1168656Y935738D02*
G01*
X1071628Y935738D01*
X1168656Y935738D02*
G01*
X1168656Y875794D01*
X1122428Y935738D02*
G01*
X1122428Y898908D01*
X1071628Y935738D02*
G01*
X1071628Y875794D01*
X1168656Y845314D02*
G01*
X1071628Y845314D01*
X1168656Y845314D02*
G01*
X1168656Y785370D01*
X1122428Y845314D02*
G01*
X1122428Y808484D01*
X1420878Y917440D02*
G01*
X1323850Y954270D01*
X1420878Y917440D02*
G01*
X1323850Y880356D01*
X1356362Y940300D02*
G01*
X1356362Y894326D01*
X1420878Y822190D02*
G01*
X1416306Y836160D01*
X1402336Y845304D01*
X1379476Y849876D01*
X1365506Y849876D01*
X1342392Y845304D01*
X1328676Y836160D01*
X1323850Y822190D01*
X1323850Y813046D01*
X1328676Y799076D01*
X1342392Y789932D01*
X1365506Y785360D01*
X1379476Y785360D01*
X1402336Y789932D01*
X1416306Y799076D01*
X1420878Y813046D01*
X1420878Y822190D01*
X1696976Y876040D02*
G01*
X1599948Y912870D01*
X1696976Y876040D02*
G01*
X1599948Y838956D01*
X1632460Y898900D02*
G01*
X1632460Y852926D01*
X1678434Y808476D02*
G01*
X1683260Y799332D01*
X1696976Y785362D01*
X1599948Y785362D01*
X1935736Y917445D02*
G01*
X1838708Y954275D01*
X1935736Y917445D02*
G01*
X1838708Y880361D01*
X1871220Y940305D02*
G01*
X1871220Y894331D01*
X1912622Y845309D02*
G01*
X1917194Y845309D01*
X1926592Y840737D01*
X1931164Y836165D01*
X1935736Y826767D01*
X1935736Y808225D01*
X1931164Y799081D01*
X1926592Y794509D01*
X1917194Y789937D01*
X1908050Y789937D01*
X1898906Y794509D01*
X1884936Y803653D01*
X1838708Y849881D01*
X1838708Y785365D01*
X2191260Y917442D02*
G01*
X2094232Y954272D01*
X2191260Y917442D02*
G01*
X2094232Y880358D01*
X2126744Y940302D02*
G01*
X2126744Y894328D01*
X2191260Y840734D02*
G01*
X2191260Y789934D01*
X2154430Y817620D01*
X2154430Y803650D01*
X2149858Y794506D01*
X2145032Y789934D01*
X2131316Y785362D01*
X2121918Y785362D01*
X2108202Y789934D01*
X2099058Y799078D01*
X2094232Y813048D01*
X2094232Y826764D01*
X2099058Y840734D01*
X2103630Y845306D01*
X2112774Y849878D01*
X2418590Y922020D02*
G01*
X2321562Y958850D01*
X2418590Y922020D02*
G01*
X2321562Y884936D01*
X2354074Y944879D02*
G01*
X2354074Y898905D01*
X2418590Y808228D02*
G01*
X2354074Y854455D01*
X2354074Y785113D01*
X2418590Y808228D02*
G01*
X2321562Y808228D01*
X2682496Y917442D02*
G01*
X2585468Y954272D01*
X2682496Y917442D02*
G01*
X2585468Y880358D01*
X2617980Y940302D02*
G01*
X2617980Y894328D01*
X2682496Y794506D02*
G01*
X2682496Y840734D01*
X2641094Y845306D01*
X2645666Y840734D01*
X2650238Y826764D01*
X2650238Y813048D01*
X2645666Y799078D01*
X2636268Y789934D01*
X2622552Y785362D01*
X2613154Y785362D01*
X2599438Y789934D01*
X2590294Y799078D01*
X2585468Y813048D01*
X2585468Y826764D01*
X2590294Y840734D01*
X2594866Y845306D01*
X2604010Y849878D01*
X2948180Y912868D02*
G01*
X2851152Y949698D01*
X2948180Y912868D02*
G01*
X2851152Y875784D01*
X2883664Y935728D02*
G01*
X2883664Y889754D01*
X2934464Y789932D02*
G01*
X2943608Y794504D01*
X2948180Y808474D01*
X2948180Y817618D01*
X2943608Y831588D01*
X2929638Y840732D01*
X2906778Y845304D01*
X2883664Y845304D01*
X2865122Y840732D01*
X2855978Y831588D01*
X2851152Y817618D01*
X2851152Y813046D01*
X2855978Y799076D01*
X2865122Y789932D01*
X2878838Y785360D01*
X2883664Y785360D01*
X2897380Y789932D01*
X2906778Y799076D01*
X2911350Y813046D01*
X2911350Y817618D01*
X2906778Y831588D01*
X2897380Y840732D01*
X2883664Y845304D01*
X3200656Y917450D02*
G01*
X3103628Y954280D01*
X3200656Y917450D02*
G01*
X3103628Y880366D01*
X3136140Y940310D02*
G01*
X3136140Y894336D01*
X3200656Y785370D02*
G01*
X3103628Y831344D01*
X3200656Y849886D02*
G01*
X3200656Y785370D01*
X3694940Y1040386D02*
G01*
X3597912Y1040386D01*
X3694940Y1040386D02*
G01*
X3694940Y998730D01*
X3690368Y985014D01*
X3685796Y980442D01*
X3676398Y975616D01*
X3667254Y975616D01*
X3658110Y980442D01*
X3653538Y985014D01*
X3648712Y998730D01*
X3648712Y1040386D01*
X3648712Y1008128D02*
G01*
X3597912Y975616D01*
X3681224Y880620D02*
G01*
X3690368Y889764D01*
X3694940Y903734D01*
X3694940Y922276D01*
X3690368Y935992D01*
X3681224Y945136D01*
X3671826Y945136D01*
X3662682Y940564D01*
X3658110Y935992D01*
X3653538Y926848D01*
X3644140Y899162D01*
X3639568Y889764D01*
X3634996Y885192D01*
X3625598Y880620D01*
X3611882Y880620D01*
X3602738Y889764D01*
X3597912Y903734D01*
X3597912Y922276D01*
X3602738Y935992D01*
X3611882Y945136D01*
X3694940Y817882D02*
G01*
X3597912Y817882D01*
X3694940Y850140D02*
G01*
X3694940Y785370D01*
D10*
X513587Y5963665D02*
G01*
X513587Y5854700D01*
X513587Y5963665D02*
G01*
X560323Y5963665D01*
X575818Y5958586D01*
X581152Y5953252D01*
X586231Y5942837D01*
X586231Y5927344D01*
X581152Y5916929D01*
X575818Y5911850D01*
X560323Y5906515D01*
X513587Y5906515D01*
X651763Y5963665D02*
G01*
X641350Y5958586D01*
X630936Y5948171D01*
X625855Y5937757D01*
X620521Y5922010D01*
X620521Y5896102D01*
X625855Y5880607D01*
X630936Y5870194D01*
X641350Y5859779D01*
X651763Y5854700D01*
X672592Y5854700D01*
X683005Y5859779D01*
X693420Y5870194D01*
X698500Y5880607D01*
X703834Y5896102D01*
X703834Y5922010D01*
X698500Y5937757D01*
X693420Y5948171D01*
X683005Y5958586D01*
X672592Y5963665D01*
X651763Y5963665D01*
X738123Y5963665D02*
G01*
X764031Y5854700D01*
X789939Y5963665D02*
G01*
X764031Y5854700D01*
X789939Y5963665D02*
G01*
X815847Y5854700D01*
X842010Y5963665D02*
G01*
X815847Y5854700D01*
X876300Y5963665D02*
G01*
X876300Y5854700D01*
X876300Y5963665D02*
G01*
X943863Y5963665D01*
X876300Y5911850D02*
G01*
X917702Y5911850D01*
X876300Y5854700D02*
G01*
X943863Y5854700D01*
X978154Y5963665D02*
G01*
X978154Y5854700D01*
X978154Y5963665D02*
G01*
X1024889Y5963665D01*
X1040384Y5958586D01*
X1045718Y5953252D01*
X1050797Y5942837D01*
X1050797Y5932423D01*
X1045718Y5922010D01*
X1040384Y5916929D01*
X1024889Y5911850D01*
X978154Y5911850D01*
X1014476Y5911850D02*
G01*
X1050797Y5854700D01*
X1085087Y5901436D02*
G01*
X1178560Y5901436D01*
X1264920Y5963665D02*
G01*
X1264920Y5880607D01*
X1259586Y5864860D01*
X1254505Y5859779D01*
X1244092Y5854700D01*
X1233678Y5854700D01*
X1223263Y5859779D01*
X1218184Y5864860D01*
X1212850Y5880607D01*
X1212850Y5891021D01*
X1340612Y5963665D02*
G01*
X1299210Y5854700D01*
X1340612Y5963665D02*
G01*
X1382268Y5854700D01*
X1314704Y5891021D02*
G01*
X1366773Y5891021D01*
X1494536Y5937757D02*
G01*
X1489202Y5948171D01*
X1478787Y5958586D01*
X1468628Y5963665D01*
X1447800Y5963665D01*
X1437386Y5958586D01*
X1426971Y5948171D01*
X1421637Y5937757D01*
X1416557Y5922010D01*
X1416557Y5896102D01*
X1421637Y5880607D01*
X1426971Y5870194D01*
X1437386Y5859779D01*
X1447800Y5854700D01*
X1468628Y5854700D01*
X1478787Y5859779D01*
X1489202Y5870194D01*
X1494536Y5880607D01*
X1528826Y5963665D02*
G01*
X1528826Y5854700D01*
X1601470Y5963665D02*
G01*
X1528826Y5891021D01*
X1554734Y5916929D02*
G01*
X1601470Y5854700D01*
X513587Y5785865D02*
G01*
X513587Y5707887D01*
X518668Y5692394D01*
X529081Y5681979D01*
X544829Y5676900D01*
X555244Y5676900D01*
X570737Y5681979D01*
X581152Y5692394D01*
X586231Y5707887D01*
X586231Y5785865D01*
X630936Y5785865D02*
G01*
X688086Y5785865D01*
X657097Y5744210D01*
X672592Y5744210D01*
X683005Y5739129D01*
X688086Y5734050D01*
X693420Y5718302D01*
X693420Y5707887D01*
X688086Y5692394D01*
X677671Y5681979D01*
X662178Y5676900D01*
X646684Y5676900D01*
X630936Y5681979D01*
X625855Y5687060D01*
X620521Y5697473D01*
X718314Y5118100D02*
G01*
X718314Y5009134D01*
X718314Y5118100D02*
G01*
X765050Y5118100D01*
X780544Y5113020D01*
X785878Y5107686D01*
X790958Y5097271D01*
X790958Y5081778D01*
X785878Y5071363D01*
X780544Y5066284D01*
X765050Y5060950D01*
X718314Y5060950D01*
X825248Y5118100D02*
G01*
X825248Y5009134D01*
X859538Y5118100D02*
G01*
X859538Y5009134D01*
X859538Y5118100D02*
G01*
X932436Y5009134D01*
X932436Y5118100D02*
G01*
X932436Y5009134D01*
X966726Y5118100D02*
G01*
X966726Y5009134D01*
X1039370Y5118100D02*
G01*
X1039370Y5009134D01*
X966726Y5066284D02*
G01*
X1039370Y5066284D01*
X1073660Y5118100D02*
G01*
X1073660Y5009134D01*
X1073660Y5118100D02*
G01*
X1141224Y5118100D01*
X1073660Y5066284D02*
G01*
X1115316Y5066284D01*
X1073660Y5009134D02*
G01*
X1141224Y5009134D01*
X1217170Y5118100D02*
G01*
X1175514Y5009134D01*
X1217170Y5118100D02*
G01*
X1258572Y5009134D01*
X1191008Y5045455D02*
G01*
X1243078Y5045455D01*
X1292862Y5118100D02*
G01*
X1292862Y5009134D01*
X1292862Y5118100D02*
G01*
X1329184Y5118100D01*
X1344932Y5113020D01*
X1355346Y5102605D01*
X1360426Y5092192D01*
X1365760Y5076444D01*
X1365760Y5050536D01*
X1360426Y5035042D01*
X1355346Y5024628D01*
X1344932Y5014213D01*
X1329184Y5009134D01*
X1292862Y5009134D01*
X1400050Y5118100D02*
G01*
X1400050Y5009134D01*
X1400050Y5118100D02*
G01*
X1467614Y5118100D01*
X1400050Y5066284D02*
G01*
X1441452Y5066284D01*
X1400050Y5009134D02*
G01*
X1467614Y5009134D01*
X1501904Y5118100D02*
G01*
X1501904Y5009134D01*
X1501904Y5118100D02*
G01*
X1548640Y5118100D01*
X1564134Y5113020D01*
X1569214Y5107686D01*
X1574548Y5097271D01*
X1574548Y5086857D01*
X1569214Y5076444D01*
X1564134Y5071363D01*
X1548640Y5066284D01*
X1501904Y5066284D01*
X1538226Y5066284D02*
G01*
X1574548Y5009134D01*
X1608838Y5055870D02*
G01*
X1702310Y5055870D01*
X1788670Y5118100D02*
G01*
X1736600Y5045455D01*
X1814578Y5045455D01*
X1788670Y5118100D02*
G01*
X1788670Y5009134D01*
X1848868Y5118100D02*
G01*
X1848868Y5009134D01*
X1848868Y5118100D02*
G01*
X1895604Y5118100D01*
X1911098Y5113020D01*
X1916432Y5107686D01*
X1921512Y5097271D01*
X1921512Y5081778D01*
X1916432Y5071363D01*
X1911098Y5066284D01*
X1895604Y5060950D01*
X1848868Y5060950D01*
X1955802Y5118100D02*
G01*
X1955802Y5009134D01*
X1990092Y5118100D02*
G01*
X1990092Y5009134D01*
X1990092Y5118100D02*
G01*
X2062990Y5009134D01*
X2062990Y5118100D02*
G01*
X2062990Y5009134D01*
X2229865Y5251957D02*
G01*
X2224531Y5262371D01*
X2214118Y5272786D01*
X2203958Y5277865D01*
X2183129Y5277865D01*
X2172715Y5272786D01*
X2162302Y5262371D01*
X2156968Y5251957D01*
X2151888Y5236210D01*
X2151888Y5210302D01*
X2156968Y5194807D01*
X2162302Y5184394D01*
X2172715Y5173979D01*
X2183129Y5168900D01*
X2203958Y5168900D01*
X2214118Y5173979D01*
X2224531Y5184394D01*
X2229865Y5194807D01*
X2264156Y5277865D02*
G01*
X2264156Y5168900D01*
X2264156Y5277865D02*
G01*
X2336800Y5168900D01*
X2336800Y5277865D02*
G01*
X2336800Y5168900D01*
X2371090Y5257037D02*
G01*
X2381504Y5262371D01*
X2396997Y5277865D01*
X2396997Y5168900D01*
X5549386Y5130800D02*
G01*
X5549386Y5021834D01*
X5622030Y5130800D02*
G01*
X5622030Y5021834D01*
X5549386Y5078984D02*
G01*
X5622030Y5078984D01*
X5734298Y5104892D02*
G01*
X5729218Y5115305D01*
X5718804Y5125720D01*
X5708390Y5130800D01*
X5687562Y5130800D01*
X5677148Y5125720D01*
X5666734Y5115305D01*
X5661654Y5104892D01*
X5656320Y5089144D01*
X5656320Y5063236D01*
X5661654Y5047742D01*
X5666734Y5037328D01*
X5677148Y5026913D01*
X5687562Y5021834D01*
X5708390Y5021834D01*
X5718804Y5026913D01*
X5729218Y5037328D01*
X5734298Y5047742D01*
X5768588Y5068570D02*
G01*
X5862060Y5068570D01*
X5927592Y5130800D02*
G01*
X5912098Y5125720D01*
X5901684Y5109971D01*
X5896350Y5084063D01*
X5896350Y5068570D01*
X5901684Y5042407D01*
X5912098Y5026913D01*
X5927592Y5021834D01*
X5938006Y5021834D01*
X5953500Y5026913D01*
X5963914Y5042407D01*
X5969248Y5068570D01*
X5969248Y5084063D01*
X5963914Y5109971D01*
X5953500Y5125720D01*
X5938006Y5130800D01*
X5927592Y5130800D01*
X6065768Y5130800D02*
G01*
X6013952Y5130800D01*
X6008618Y5084063D01*
X6013952Y5089144D01*
X6029446Y5094478D01*
X6044940Y5094478D01*
X6060688Y5089144D01*
X6071102Y5078984D01*
X6076182Y5063236D01*
X6076182Y5052821D01*
X6071102Y5037328D01*
X6060688Y5026913D01*
X6044940Y5021834D01*
X6029446Y5021834D01*
X6013952Y5026913D01*
X6008618Y5031994D01*
X6003538Y5042407D01*
X6012688Y5252465D02*
G01*
X6012688Y5174487D01*
X6017768Y5158994D01*
X6028181Y5148579D01*
X6043929Y5143500D01*
X6054343Y5143500D01*
X6069838Y5148579D01*
X6080252Y5158994D01*
X6085331Y5174487D01*
X6085331Y5252465D01*
X6171691Y5252465D02*
G01*
X6119622Y5179821D01*
X6197600Y5179821D01*
X6171691Y5252465D02*
G01*
X6171691Y5143500D01*
X1427987Y4185665D02*
G01*
X1427987Y4076700D01*
X1427987Y4185665D02*
G01*
X1474723Y4185665D01*
X1490218Y4180586D01*
X1495552Y4175252D01*
X1500631Y4164837D01*
X1500631Y4154423D01*
X1495552Y4144010D01*
X1490218Y4138929D01*
X1474723Y4133850D01*
X1427987Y4133850D02*
G01*
X1474723Y4133850D01*
X1490218Y4128515D01*
X1495552Y4123436D01*
X1500631Y4113021D01*
X1500631Y4097273D01*
X1495552Y4086860D01*
X1490218Y4081779D01*
X1474723Y4076700D01*
X1427987Y4076700D01*
X1534921Y4185665D02*
G01*
X1534921Y4107687D01*
X1540255Y4092194D01*
X1550670Y4081779D01*
X1566163Y4076700D01*
X1576578Y4076700D01*
X1592071Y4081779D01*
X1602486Y4092194D01*
X1607820Y4107687D01*
X1607820Y4185665D01*
X1720087Y4159757D02*
G01*
X1714754Y4170171D01*
X1704339Y4180586D01*
X1693926Y4185665D01*
X1673097Y4185665D01*
X1662937Y4180586D01*
X1652523Y4170171D01*
X1647189Y4159757D01*
X1642110Y4144010D01*
X1642110Y4118102D01*
X1647189Y4102607D01*
X1652523Y4092194D01*
X1662937Y4081779D01*
X1673097Y4076700D01*
X1693926Y4076700D01*
X1704339Y4081779D01*
X1714754Y4092194D01*
X1720087Y4102607D01*
X1754378Y4185665D02*
G01*
X1754378Y4076700D01*
X1827021Y4185665D02*
G01*
X1754378Y4113021D01*
X1780286Y4138929D02*
G01*
X1827021Y4076700D01*
X1861312Y4123436D02*
G01*
X1954784Y4123436D01*
X2067052Y4159757D02*
G01*
X2061718Y4170171D01*
X2051558Y4180586D01*
X2041143Y4185665D01*
X2020315Y4185665D01*
X2009902Y4180586D01*
X1999488Y4170171D01*
X1994408Y4159757D01*
X1989074Y4144010D01*
X1989074Y4118102D01*
X1994408Y4102607D01*
X1999488Y4092194D01*
X2009902Y4081779D01*
X2020315Y4076700D01*
X2041143Y4076700D01*
X2051558Y4081779D01*
X2061718Y4092194D01*
X2067052Y4102607D01*
X2132584Y4185665D02*
G01*
X2122170Y4180586D01*
X2111756Y4170171D01*
X2106422Y4159757D01*
X2101341Y4144010D01*
X2101341Y4118102D01*
X2106422Y4102607D01*
X2111756Y4092194D01*
X2122170Y4081779D01*
X2132584Y4076700D01*
X2153158Y4076700D01*
X2163572Y4081779D01*
X2173986Y4092194D01*
X2179320Y4102607D01*
X2184400Y4118102D01*
X2184400Y4144010D01*
X2179320Y4159757D01*
X2173986Y4170171D01*
X2163572Y4180586D01*
X2153158Y4185665D01*
X2132584Y4185665D01*
X2218690Y4185665D02*
G01*
X2218690Y4076700D01*
X2218690Y4185665D02*
G01*
X2291588Y4076700D01*
X2291588Y4185665D02*
G01*
X2291588Y4076700D01*
X2325877Y4185665D02*
G01*
X2367279Y4076700D01*
X2408936Y4185665D02*
G01*
X2367279Y4076700D01*
X2443225Y4185665D02*
G01*
X2443225Y4076700D01*
X2443225Y4185665D02*
G01*
X2510790Y4185665D01*
X2443225Y4133850D02*
G01*
X2484627Y4133850D01*
X2443225Y4076700D02*
G01*
X2510790Y4076700D01*
X2545079Y4185665D02*
G01*
X2545079Y4076700D01*
X2545079Y4185665D02*
G01*
X2591815Y4185665D01*
X2607309Y4180586D01*
X2612643Y4175252D01*
X2617724Y4164837D01*
X2617724Y4154423D01*
X2612643Y4144010D01*
X2607309Y4138929D01*
X2591815Y4133850D01*
X2545079Y4133850D01*
X2581402Y4133850D02*
G01*
X2617724Y4076700D01*
X2688336Y4185665D02*
G01*
X2688336Y4076700D01*
X2652013Y4185665D02*
G01*
X2724658Y4185665D01*
X2758947Y4185665D02*
G01*
X2758947Y4076700D01*
X2758947Y4185665D02*
G01*
X2826511Y4185665D01*
X2758947Y4133850D02*
G01*
X2800604Y4133850D01*
X2758947Y4076700D02*
G01*
X2826511Y4076700D01*
X2860802Y4185665D02*
G01*
X2860802Y4076700D01*
X2860802Y4185665D02*
G01*
X2907538Y4185665D01*
X2923286Y4180586D01*
X2928365Y4175252D01*
X2933700Y4164837D01*
X2933700Y4154423D01*
X2928365Y4144010D01*
X2923286Y4138929D01*
X2907538Y4133850D01*
X2860802Y4133850D01*
X2897377Y4133850D02*
G01*
X2933700Y4076700D01*
X2967990Y4123436D02*
G01*
X3061461Y4123436D01*
X3157981Y4185665D02*
G01*
X3106165Y4185665D01*
X3100831Y4138929D01*
X3106165Y4144010D01*
X3121659Y4149344D01*
X3137408Y4149344D01*
X3152902Y4144010D01*
X3163315Y4133850D01*
X3168395Y4118102D01*
X3168395Y4107687D01*
X3163315Y4092194D01*
X3152902Y4081779D01*
X3137408Y4076700D01*
X3121659Y4076700D01*
X3106165Y4081779D01*
X3100831Y4086860D01*
X3095752Y4097273D01*
X3202686Y4185665D02*
G01*
X3244341Y4076700D01*
X3285997Y4185665D02*
G01*
X3244341Y4076700D01*
X1427987Y4007865D02*
G01*
X1427987Y3929887D01*
X1433068Y3914394D01*
X1443481Y3903979D01*
X1459229Y3898900D01*
X1469644Y3898900D01*
X1485137Y3903979D01*
X1495552Y3914394D01*
X1500631Y3929887D01*
X1500631Y4007865D01*
X1597405Y4007865D02*
G01*
X1545336Y4007865D01*
X1540255Y3961129D01*
X1545336Y3966210D01*
X1561084Y3971544D01*
X1576578Y3971544D01*
X1592071Y3966210D01*
X1602486Y3956050D01*
X1607820Y3940302D01*
X1607820Y3929887D01*
X1602486Y3914394D01*
X1592071Y3903979D01*
X1576578Y3898900D01*
X1561084Y3898900D01*
X1545336Y3903979D01*
X1540255Y3909060D01*
X1534921Y3919473D01*
D11*
X742187Y3726434D02*
G01*
X742187Y3583178D01*
X742187Y3726434D02*
G01*
X830834Y3726434D01*
X742187Y3658107D02*
G01*
X796797Y3658107D01*
X742187Y3583178D02*
G01*
X830834Y3583178D01*
X875792Y3726434D02*
G01*
X875792Y3583178D01*
X875792Y3726434D02*
G01*
X971295Y3583178D01*
X971295Y3726434D02*
G01*
X971295Y3583178D01*
X729487Y3472434D02*
G01*
X784097Y3329178D01*
X838454Y3472434D02*
G01*
X784097Y3329178D01*
X883665Y3472434D02*
G01*
X890523Y3465576D01*
X897128Y3472434D01*
X890523Y3479292D01*
X883665Y3472434D01*
X890523Y3424681D02*
G01*
X890523Y3329178D01*
X942339Y3424681D02*
G01*
X942339Y3329178D01*
X942339Y3397504D02*
G01*
X962660Y3417823D01*
X976376Y3424681D01*
X996695Y3424681D01*
X1010412Y3417823D01*
X1017270Y3397504D01*
X1017270Y3329178D01*
X1123695Y3451860D02*
G01*
X1123695Y3329178D01*
X1062228Y3390645D02*
G01*
X1184910Y3390645D01*
X819150Y3184397D02*
G01*
X812292Y3197860D01*
X798576Y3211576D01*
X784860Y3218434D01*
X757681Y3218434D01*
X743965Y3211576D01*
X730504Y3197860D01*
X723645Y3184397D01*
X716787Y3163823D01*
X716787Y3129787D01*
X723645Y3109213D01*
X730504Y3095752D01*
X743965Y3082036D01*
X757681Y3075178D01*
X784860Y3075178D01*
X798576Y3082036D01*
X812292Y3095752D01*
X819150Y3109213D01*
X819150Y3129787D01*
X784860Y3129787D02*
G01*
X819150Y3129787D01*
X864107Y3218434D02*
G01*
X864107Y3075178D01*
X864107Y3218434D02*
G01*
X959612Y3075178D01*
X959612Y3218434D02*
G01*
X959612Y3075178D01*
X1004570Y3218434D02*
G01*
X1004570Y3075178D01*
X1004570Y3218434D02*
G01*
X1052321Y3218434D01*
X1072642Y3211576D01*
X1086357Y3197860D01*
X1093215Y3184397D01*
X1100073Y3163823D01*
X1100073Y3129787D01*
X1093215Y3109213D01*
X1086357Y3095752D01*
X1072642Y3082036D01*
X1052321Y3075178D01*
X1004570Y3075178D01*
X704087Y2964434D02*
G01*
X758697Y2821178D01*
X813054Y2964434D02*
G01*
X758697Y2821178D01*
X892302Y2916681D02*
G01*
X878586Y2909823D01*
X865123Y2896107D01*
X858265Y2875787D01*
X858265Y2862071D01*
X865123Y2841752D01*
X878586Y2828036D01*
X892302Y2821178D01*
X912621Y2821178D01*
X926337Y2828036D01*
X940054Y2841752D01*
X946912Y2862071D01*
X946912Y2875787D01*
X940054Y2896107D01*
X926337Y2909823D01*
X912621Y2916681D01*
X892302Y2916681D01*
X991870Y2916681D02*
G01*
X991870Y2848610D01*
X998728Y2828036D01*
X1012189Y2821178D01*
X1032763Y2821178D01*
X1046479Y2828036D01*
X1066800Y2848610D01*
X1066800Y2916681D02*
G01*
X1066800Y2821178D01*
X1132331Y2964434D02*
G01*
X1132331Y2848610D01*
X1139189Y2828036D01*
X1152652Y2821178D01*
X1166368Y2821178D01*
X1111757Y2916681D02*
G01*
X1159510Y2916681D01*
X1377695Y2943860D02*
G01*
X1377695Y2821178D01*
X1316481Y2882645D02*
G01*
X1439163Y2882645D01*
X1687576Y3358134D02*
G01*
X1619504Y3358134D01*
X1612645Y3296665D01*
X1619504Y3303523D01*
X1639823Y3310381D01*
X1660397Y3310381D01*
X1680718Y3303523D01*
X1694434Y3289807D01*
X1701292Y3269487D01*
X1701292Y3255771D01*
X1694434Y3235452D01*
X1680718Y3221736D01*
X1660397Y3214878D01*
X1639823Y3214878D01*
X1619504Y3221736D01*
X1612645Y3228594D01*
X1605787Y3242310D01*
X1746250Y3358134D02*
G01*
X1800860Y3214878D01*
X1855215Y3358134D02*
G01*
X1800860Y3214878D01*
X1900428Y3276345D02*
G01*
X2023109Y3276345D01*
X2102104Y3310381D02*
G01*
X2088388Y3303523D01*
X2074925Y3289807D01*
X2068068Y3269487D01*
X2068068Y3255771D01*
X2074925Y3235452D01*
X2088388Y3221736D01*
X2102104Y3214878D01*
X2122677Y3214878D01*
X2136140Y3221736D01*
X2149856Y3235452D01*
X2156713Y3255771D01*
X2156713Y3269487D01*
X2149856Y3289807D01*
X2136140Y3303523D01*
X2122677Y3310381D01*
X2102104Y3310381D01*
X2201672Y3310381D02*
G01*
X2201672Y3242310D01*
X2208529Y3221736D01*
X2222245Y3214878D01*
X2242565Y3214878D01*
X2256281Y3221736D01*
X2276602Y3242310D01*
X2276602Y3310381D02*
G01*
X2276602Y3214878D01*
X2342134Y3358134D02*
G01*
X2342134Y3242310D01*
X2348991Y3221736D01*
X2362708Y3214878D01*
X2376170Y3214878D01*
X2321813Y3310381D02*
G01*
X2369311Y3310381D01*
D10*
X1608952Y4901417D02*
G01*
X1619366Y4906751D01*
X1634860Y4922245D01*
X1634860Y4813279D01*
X1700392Y4922245D02*
G01*
X1684898Y4917165D01*
X1674484Y4901417D01*
X1669150Y4875509D01*
X1669150Y4860015D01*
X1674484Y4833853D01*
X1684898Y4818359D01*
X1700392Y4813279D01*
X1710806Y4813279D01*
X1726300Y4818359D01*
X1736714Y4833853D01*
X1742048Y4860015D01*
X1742048Y4875509D01*
X1736714Y4901417D01*
X1726300Y4917165D01*
X1710806Y4922245D01*
X1700392Y4922245D01*
X1807326Y4922245D02*
G01*
X1791832Y4917165D01*
X1781418Y4901417D01*
X1776338Y4875509D01*
X1776338Y4860015D01*
X1781418Y4833853D01*
X1791832Y4818359D01*
X1807326Y4813279D01*
X1817740Y4813279D01*
X1833488Y4818359D01*
X1843902Y4833853D01*
X1848982Y4860015D01*
X1848982Y4875509D01*
X1843902Y4901417D01*
X1833488Y4917165D01*
X1817740Y4922245D01*
X1807326Y4922245D01*
X1883272Y4885923D02*
G01*
X1883272Y4833853D01*
X1888352Y4818359D01*
X1898766Y4813279D01*
X1914514Y4813279D01*
X1924928Y4818359D01*
X1940422Y4833853D01*
X1940422Y4885923D02*
G01*
X1940422Y4813279D01*
X1974712Y4922245D02*
G01*
X1974712Y4813279D01*
X1974712Y4922245D02*
G01*
X2042276Y4922245D01*
X1974712Y4870429D02*
G01*
X2016368Y4870429D01*
X1686930Y4718537D02*
G01*
X1681596Y4728951D01*
X1671182Y4739365D01*
X1661022Y4744445D01*
X1640194Y4744445D01*
X1629780Y4739365D01*
X1619366Y4728951D01*
X1614032Y4718537D01*
X1608952Y4702789D01*
X1608952Y4676881D01*
X1614032Y4661387D01*
X1619366Y4650973D01*
X1629780Y4640559D01*
X1640194Y4635479D01*
X1661022Y4635479D01*
X1671182Y4640559D01*
X1681596Y4650973D01*
X1686930Y4661387D01*
X1721220Y4723617D02*
G01*
X1731634Y4728951D01*
X1747128Y4744445D01*
X1747128Y4635479D01*
X5390388Y1002537D02*
G01*
X5400802Y1007871D01*
X5416295Y1023365D01*
X5416295Y914400D01*
X5450586Y1023365D02*
G01*
X5450586Y914400D01*
X5502656Y987044D02*
G01*
X5450586Y934973D01*
X5471413Y955802D02*
G01*
X5507736Y914400D01*
X5987288Y655065D02*
G01*
X5987288Y546100D01*
X5987288Y655065D02*
G01*
X6034024Y655065D01*
X6049518Y649986D01*
X6054852Y644652D01*
X6059931Y634237D01*
X6059931Y623823D01*
X6054852Y613410D01*
X6049518Y608329D01*
X6034024Y603250D01*
X5987288Y603250D01*
X6023609Y603250D02*
G01*
X6059931Y546100D01*
X6094222Y634237D02*
G01*
X6104636Y639571D01*
X6120384Y655065D01*
X6120384Y546100D01*
X5273037Y525271D02*
G01*
X5283451Y530605D01*
X5298945Y546100D01*
X5298945Y437134D01*
X5333235Y546100D02*
G01*
X5333235Y437134D01*
X5385305Y509778D02*
G01*
X5333235Y457707D01*
X5354063Y478536D02*
G01*
X5390385Y437134D01*
X5974588Y896365D02*
G01*
X5974588Y787400D01*
X5974588Y896365D02*
G01*
X6021324Y896365D01*
X6036818Y891286D01*
X6042152Y885952D01*
X6047231Y875537D01*
X6047231Y865123D01*
X6042152Y854710D01*
X6036818Y849629D01*
X6021324Y844550D01*
X5974588Y844550D01*
X6010909Y844550D02*
G01*
X6047231Y787400D01*
X6086856Y870457D02*
G01*
X6086856Y875537D01*
X6091936Y885952D01*
X6097270Y891286D01*
X6107684Y896365D01*
X6128258Y896365D01*
X6138672Y891286D01*
X6144006Y885952D01*
X6149086Y875537D01*
X6149086Y865123D01*
X6144006Y854710D01*
X6133591Y839215D01*
X6081522Y787400D01*
X6154420Y787400D01*
X5390388Y1510537D02*
G01*
X5400802Y1515871D01*
X5416295Y1531365D01*
X5416295Y1422400D01*
X5450586Y1531365D02*
G01*
X5450586Y1422400D01*
X5502656Y1495044D02*
G01*
X5450586Y1442973D01*
X5471413Y1463802D02*
G01*
X5507736Y1422400D01*
X5974588Y1163065D02*
G01*
X5974588Y1054100D01*
X5974588Y1163065D02*
G01*
X6021324Y1163065D01*
X6036818Y1157986D01*
X6042152Y1152652D01*
X6047231Y1142237D01*
X6047231Y1131823D01*
X6042152Y1121410D01*
X6036818Y1116329D01*
X6021324Y1111250D01*
X5974588Y1111250D01*
X6010909Y1111250D02*
G01*
X6047231Y1054100D01*
X6091936Y1163065D02*
G01*
X6149086Y1163065D01*
X6118097Y1121410D01*
X6133591Y1121410D01*
X6144006Y1116329D01*
X6149086Y1111250D01*
X6154420Y1095502D01*
X6154420Y1085087D01*
X6149086Y1069594D01*
X6138672Y1059179D01*
X6123177Y1054100D01*
X6107684Y1054100D01*
X6091936Y1059179D01*
X6086856Y1064260D01*
X6081522Y1074673D01*
G36*
X1810562Y4514850D02*
G01*
X1810562Y4184650D01*
X1820164Y4194403D01*
X1829155Y4204665D01*
X1837537Y4215485D01*
X1845259Y4226763D01*
X1852269Y4238498D01*
X1858568Y4250639D01*
X1864106Y4263136D01*
X1868932Y4275886D01*
X1872945Y4288993D01*
X1876196Y4302252D01*
X1878634Y4315714D01*
X1880260Y4329277D01*
X1881073Y4342892D01*
X1881073Y4356557D01*
X1880260Y4370222D01*
X1878634Y4383786D01*
X1876196Y4397248D01*
X1872945Y4410506D01*
X1868932Y4423562D01*
X1864106Y4436364D01*
X1858568Y4448860D01*
X1852269Y4461002D01*
X1845259Y4472736D01*
X1837537Y4484014D01*
X1829155Y4494834D01*
X1820164Y4505096D01*
G37*
D12*
X2850388Y5607050D02*
G01*
X4374388Y5607050D01*
X4374388Y3575050D01*
X2850388Y3575050D01*
X2850388Y5607050D01*
D13*
X227584Y2312670D02*
G01*
X227584Y534670D01*
X227584Y534670D02*
G01*
X4545584Y534670D01*
X4545584Y534670D02*
G01*
X4545584Y2312670D01*
X4545584Y2312670D02*
G01*
X227584Y2312670D01*
X1007618Y1804415D02*
G01*
X245618Y1804415D01*
X245618Y1042415D01*
X1007618Y1042415D01*
X1007618Y1804415D01*
X150492Y5600837D02*
G01*
X150492Y4675837D01*
X1068501Y5345838D02*
G01*
X1068501Y5600837D01*
X514179Y4910838D02*
G01*
X1068501Y4910838D01*
X514179Y5345838D02*
G01*
X1068501Y5345838D01*
X1068501Y5345838D02*
G01*
X1068501Y4761415D01*
X1234178Y5345838D02*
G01*
X1234178Y5338234D01*
X1234178Y5470834D02*
G01*
X1234178Y5345838D01*
X514179Y5345838D02*
G01*
X479181Y5345838D01*
X479181Y4910838D01*
X514179Y4910838D01*
X1166522Y4675837D02*
G01*
X1234178Y4675837D01*
X1234178Y4918514D01*
X1234178Y5470834D02*
G01*
X1234178Y5600837D01*
X-190820Y5600837D01*
X-190820Y4675837D01*
X751908Y4675837D01*
X2564028Y5355031D02*
G01*
X1559026Y5355031D01*
X1559026Y5610021D01*
X2564028Y5610021D01*
X2564028Y5355031D01*
X6838188Y5353050D02*
G01*
X5276088Y5353050D01*
X5276088Y5619750D01*
X6838188Y5619750D01*
X6838188Y5353050D01*
X335787Y3854450D02*
G01*
X2548763Y3854450D01*
X2548763Y2711450D01*
X335787Y2711450D01*
X335787Y3854450D01*
X1565760Y4544367D02*
G01*
X1565760Y4464367D01*
X1525760Y4504367D02*
G01*
X1605760Y4504367D01*
X5136388Y603250D02*
G01*
X5110988Y603250D01*
X5644388Y603250D02*
G01*
X5669788Y603250D01*
X5136388Y603250D02*
G01*
X5136388Y679450D01*
X5136388Y527050D02*
G01*
X5136388Y603250D01*
X5644388Y527050D02*
G01*
X5136388Y527050D01*
X5644388Y603250D02*
G01*
X5644388Y527050D01*
X5644388Y679450D02*
G01*
X5644388Y603250D01*
X5136388Y679450D02*
G01*
X5644388Y679450D01*
X5644388Y857250D02*
G01*
X5669788Y857250D01*
X5136388Y857250D02*
G01*
X5110988Y857250D01*
X5644388Y857250D02*
G01*
X5644388Y781050D01*
X5644388Y933450D02*
G01*
X5644388Y857250D01*
X5136388Y933450D02*
G01*
X5644388Y933450D01*
X5136388Y857250D02*
G01*
X5136388Y933450D01*
X5136388Y781050D02*
G01*
X5136388Y857250D01*
X5644388Y781050D02*
G01*
X5136388Y781050D01*
X5136388Y1111250D02*
G01*
X5110988Y1111250D01*
X5644388Y1111250D02*
G01*
X5669788Y1111250D01*
X5136388Y1111250D02*
G01*
X5136388Y1187450D01*
X5136388Y1035050D02*
G01*
X5136388Y1111250D01*
X5644388Y1035050D02*
G01*
X5136388Y1035050D01*
X5644388Y1111250D02*
G01*
X5644388Y1035050D01*
X5644388Y1187450D02*
G01*
X5644388Y1111250D01*
X5136388Y1187450D02*
G01*
X5644388Y1187450D01*
G75*
G01*
X1234178Y5407233D02*
G03*
X1234186Y4863592I4J-271820D01*
D14*
G75*
G01
X1881200Y4349750D02*
G03X1881200Y4349750I-250012J0D01*
M02*
